<svg id="Capa_1" data-name="Capa 1" xmlns="http://www.w3.org/2000/svg" xmlns:xlink="http://www.w3.org/1999/xlink" viewBox="0 0 776.44 768"><defs><style>.cls-1{fill:red;}.cls-2{fill:#fff;}</style><symbol id="Pokeball" data-name="Pokeball" viewBox="0 0 577.14 638.03"><path class="cls-1" d="M566.52,289.09a4.88,4.88,0,0,0-.29-.66c6.9-27.86-8.94-56.09-23.53-79.42a5.55,5.55,0,0,0-6.8-1.8,166.21,166.21,0,0,0-10.6-27.77c-9.95-20.57-23.79-39-38.73-56.22-15.84-18.22-32.8-36-51-51.89S397.5,42.93,375,34.51c-22-8.25-45.43-12.45-68.84-14-23.85-1.58-50.51-2.33-73.39,5.53-11,3.77-21.47,9.1-31.93,14.08q-4.26,2-8.51,4.1c-1.43.64-2.85,1.34-4.23,2.08q-8.28,4.1-16.45,8.38l-1.69.91L141.38,68.87a4,4,0,0,0-2.45,4.76q-7.38,4.71-14.49,9.78.66-1.56,1.35-3.12c2.22-5-3.51-10.24-7.85-6.06a137.22,137.22,0,0,0-17,19.83,85.48,85.48,0,0,0-24.66,17.57c-4,4,1.09,10.73,6.06,7.85l1.81-1c-1.38,1.5-2.75,3-4.09,4.55a4.75,4.75,0,0,0-2.35.57,69.68,69.68,0,0,0-24.07,22.23c-3,4.43,2.71,8.92,6.84,6.84l.18-.09A5.44,5.44,0,0,0,66.18,156a132.41,132.41,0,0,0-23,40.22c-3.71,10.41-6.87,21-9.84,31.74-4.07,10.38-7.41,21-8.68,32.07-.3,1.08-.59,2.16-.89,3.24-1.58,5.65-3.25,11.28-4.75,16.95-1.07,4.07-2,8.39-.89,12.49-4.11,2.83-7.19,6.56-8.15,11.69a5.1,5.1,0,0,0,4.83,6.33l39.05,2.86a4.46,4.46,0,0,0,4.8-4.19,274.53,274.53,0,0,0,59.38,3.18,4.59,4.59,0,0,0,3.64,1.55l43.5-.19a4.4,4.4,0,0,0,2.16-.57h.44c4.2-.07,5.61-4.06,4.37-7a29.32,29.32,0,0,0,4.26-.9c-.36.94-.71,1.89-1.06,2.83-1,2.79,1.73,6.74,4.82,6.33,12.72-1.69,22.15-14.64,17.64-27.31a6.25,6.25,0,0,0-.49-1,5.53,5.53,0,0,0,3.86-3.25A224.39,224.39,0,0,1,229,233.46a5.46,5.46,0,0,0,2.76-.63q8.25-4.28,16.12-9.18a55.19,55.19,0,0,0,15.92-10.93,4.5,4.5,0,0,0,1-1.55l.06,0,2.65,0a4.84,4.84,0,0,0,4.51,3.34,135.33,135.33,0,0,0,26-2.42c3.39,0,6.78.13,10.12.45a5.13,5.13,0,0,0,1.69,1.88,199.12,199.12,0,0,1,36.24,30.69c7.82,8.43,14.19,17.57,20.47,26.92.14,2.7.39,5.4.78,8.11,1,7.2,3,16.33,12.12,16.31h.27c.62,1.26,1.24,2.52,1.87,3.77,2.87,5.65,6.86,8.74,13.23,9.37,16.29,1.6,32.81,1.93,49.16,2.88L557.11,319a5,5,0,0,0,4.82-3.67,45.07,45.07,0,0,0,1.16-13.16C566.51,298.82,568.32,294.14,566.52,289.09Zm-321.65-216,1.62-.34a4.11,4.11,0,0,0,.53-.17l.14.28ZM554.64,254q-2.39-5.43-4.32-11A102,102,0,0,1,554.64,254Zm-97.1-11.29.86-.31-.21,1.24-.13,0A6.39,6.39,0,0,0,457.54,242.69ZM557.73,280c-1.49-3.88-3.15-7.72-4.82-11.57a5.55,5.55,0,0,0,4.57-2.35A54.05,54.05,0,0,1,557.73,280Z"/><path d="M577.15,305.84V331.5c-.15.87-.37,1.74-.45,2.63-1,11.25-1.5,22.58-3,33.74A337.14,337.14,0,0,1,546,463a317.89,317.89,0,0,1-59.75,88.26q-41.17,42.86-94,65.39a258.07,258.07,0,0,1-78.47,20c-4.44.39-8.87.91-13.31,1.38H277.28a19.71,19.71,0,0,0-2.38-.49c-7.28-.65-14.6-1-21.85-2a266.36,266.36,0,0,1-97-33.18,289.13,289.13,0,0,1-79.9-67.65q-66-80.19-75-188.18C.75,341.78.38,337,0,332.19V305.84a21.87,21.87,0,0,0,.44-2.63A344.14,344.14,0,0,1,11,231.66,331,331,0,0,1,55.21,131.42a303.32,303.32,0,0,1,68.55-74.2,277.66,277.66,0,0,1,63.82-37A261.5,261.5,0,0,1,262.72,1.35C267.16.93,271.59.45,276,0h24.46a15.48,15.48,0,0,0,2.38.49,257.56,257.56,0,0,1,90.58,21.27q59,25.59,103.05,76.18a322,322,0,0,1,59.61,101.6,338.35,338.35,0,0,1,19.82,91.58C576.29,296,576.74,300.93,577.15,305.84Zm-388.36.31C192,279.58,202,257,219.44,238.65s38.5-28.54,62.61-30.34A89.22,89.22,0,0,1,340.42,224c27.7,18.91,43.41,46.69,48,82.08H554.31C547,202.58,505.26,121.78,425.1,67.52,337.2,8,226.78,11,141.09,75.17c-73.48,55-111.7,133.1-118.17,231ZM22.85,331.82C30,434.46,71.24,514.71,150.25,569.34c87.81,60.71,204.52,59.14,292.94-11.93,69-55.49,105-131.52,111-225.53H388.54c-6,58.59-52.23,97.6-98,98.1A92.25,92.25,0,0,1,230,409.09C206.27,390,192.76,364,188.75,331.82Zm265.56,72.69c42.32.48,77.11-37.75,77.49-85.17.39-47-33.82-85.17-76.86-85.8-42.56-.61-77.1,37.16-77.82,85.12C210.52,365.35,245.29,404,288.41,404.51Z"/><path class="cls-2" d="M289.67,403.82c-43.13-.49-77.9-39.16-77.2-85.85.73-48,35.27-85.74,77.83-85.12,43,.62,77.24,38.81,76.86,85.8C366.77,366.07,332,404.29,289.67,403.82Zm51.54-85.64c-.06-31.1-23.2-56.64-51.36-56.66s-51.44,25.63-51.4,56.91,23.35,56.81,51.63,56.69C318.15,375,341.26,349.27,341.21,318.18Z"/><path d="M340,318.88C340,350,316.9,375.7,288.83,375.81c-28.28.12-51.59-25.47-51.64-56.69s23.12-56.92,51.41-56.9S339.9,287.77,340,318.88ZM251,318.62c-.09,23,16.76,41.95,37.37,42s37.71-18.6,37.8-41.2c.09-23-16.82-41.92-37.43-41.93S251.09,296,251,318.62Z"/><path class="cls-2" d="M251,318.62c.08-22.66,17.06-41.18,37.74-41.17s37.52,18.95,37.43,41.93c-.09,22.6-17.17,41.21-37.8,41.2S250.92,341.66,251,318.62Z"/></symbol></defs><title>Mesa de trabajo 1</title><path class="cls-2" d="M356.69,636.38c-1.49-.48-3-1-4.43-1.47-13.53-4.6-32.08-10.91-53.52-10.91h-1.36c-.88,0-1.76,0-2.64.1-8.18-5-16.39-10.4-24.72-15.92l-.61-.4a55.86,55.86,0,0,0-9.53-13.18c-9.56-9.83-19.84-15.87-27.34-20.28l-.81-.48-.39-.35c-1.66-1.47-3.39-3-5.22-4.61q-1-1.44-2-2.82a55.07,55.07,0,0,0-7.92-21.67c-7.66-12.21-16.1-22.75-24.27-32.94-10.66-13.31-20-25-23.89-35.81V434H597v34.8c-16.84,19.66-24.79,43.69-30.61,61.3l-1.14,3.45c-2,5.94-4,11.84-6.2,17.93-1.42,1.47-2.78,2.93-4.08,4.4a55.69,55.69,0,0,0-8.57,13L542.83,573c-4.64,5.31-9.11,10.42-13.56,15.29-5.64,2.31-11.52,4.92-17.74,7.88l-.24.11c-9,4.26-24.63,11.7-37.5,24.68A93.16,93.16,0,0,0,463,626.82a131.36,131.36,0,0,0-23,6.27c-2.69,0-5.52.15-8.69.33l-12.39.29c-15.82.38-32.17.78-47.95.79A54.79,54.79,0,0,0,356.69,636.38Z"/><path class="cls-2" d="M530.1,484c-4.92,11.46-8.41,22-11.18,30.4l-1.1,3.33q-1.29,3.85-2.65,7.78a106.1,106.1,0,0,0-10.26,14.87l-5.52,6.3q-4.56,2-9.31,4.29l-.22.11c-10,4.75-28,13.29-45.13,28.48-4.44,1-9.12,2.27-14,3.81l-1.43.08-11.65.27c-16.25.4-31.59.77-46.79.78-3.44,0-6.85.17-10.21.5-13.26-4.35-30.59-9.29-51.09-10.64L306,572a105.85,105.85,0,0,0-10.24-12.25,155.07,155.07,0,0,0-27.55-22.26,105.61,105.61,0,0,0-9.67-19.68A361.18,361.18,0,0,0,234,484H530.1M647,384H118v98.43c7.8,34.89,37.45,59.28,55.82,88.55,1.87,3,.15,5.82-2.36,6.91,3.06,5.57,6.1,11.19,9.21,16.76a4.72,4.72,0,0,1,4.83,4.85c0,.24,0,.47,0,.71,5.8,4.32,11.11,9.34,16.56,14.12,7.61,4.7,15.74,8.68,22,15.13a4.58,4.58,0,0,1-.71,7.35q9.43,6.66,19.07,13.05c11.74,7.78,23.72,15.63,36,22.71q7.53,2.26,15.05,4.57A4.63,4.63,0,0,1,298,674h.73c12.89,0,25.35,4.14,37.43,8.25q7.8,2.65,15.65,4.86c4.88,0,9.75.3,14.63.67A4.57,4.57,0,0,1,371,684.5c20.75,0,41.52-.65,62.3-1.12,3.06-.18,6.13-.31,9.18-.31q1.71,0,3.42.06l6.58-.11a4.16,4.16,0,0,1,2-1.84c9.28-4.2,19.3-5.6,29.3-7,4.91-5.7,13-9.07,20.75-11.48,4.75-10.19,20.22-17.46,28.45-21.37a267.17,267.17,0,0,1,24.88-10.46c11.61-11.94,22.29-24.8,33.42-37.21a5,5,0,0,1,1.18-4.67,95.59,95.59,0,0,1,8.69-8.51c.7-1.34,1.41-2.68,2.11-4,3.19-9,6.39-18,9.42-27,6.73-20.18,14.54-46.8,34.32-58.14V384Z"/><rect class="cls-2" x="467.65" y="384.65" width="170.71" height="127.71"/><path class="cls-2" d="M637.71,385.29V511.71H468.29V385.29H637.71M639,384H467V513H639V384Z"/><path class="cls-2" d="M149.41,541.47c-3.34-4.68-6.83-9.32-10.37-13.79L134.53,522V384.53H295.47V541.47Z"/><path class="cls-2" d="M294.93,385.07V540.93H149.69c-3.3-4.6-6.74-9.17-10.23-13.58-1.47-1.86-2.94-3.72-4.39-5.58V385.07H294.93M296,384H134V522.13c1.53,2,3.08,3.92,4.62,5.88,3.65,4.61,7.14,9.27,10.52,14H296V384Z"/><path class="cls-2" d="M134.53,541.47v-1.35l1,1.35Z"/><path class="cls-2" d="M134,538.55V542h2.63L134,538.55Z"/><ellipse class="cls-2" cx="389.5" cy="570" rx="200.04" ry="99.54"/><path class="cls-2" d="M389.5,470.93c110.05,0,199.57,44.44,199.57,99.07s-89.52,99.07-199.57,99.07S189.93,624.63,189.93,570s89.52-99.07,199.57-99.07m0-.93C278.77,470,189,514.77,189,570s89.77,100,200.5,100S590,625.23,590,570,500.23,470,389.5,470Z"/><use width="577.15" height="638.03" transform="translate(95.02 57)" xlink:href="#Pokeball"/></svg>